<svg width="100" height="100" viewBox="0 0 100 100" fill="none" xmlns="http://www.w3.org/2000/svg">
<g clip-path="url(#clip0_3_25)">
<rect width="100" height="100" rx="50" fill="white"/>
<path d="M16.4268 71.06C14.6268 71.06 13.1668 70.48 12.0468 69.32C10.9268 68.12 10.0668 66.54 9.4668 64.58C8.8668 62.58 8.4668 60.4 8.2668 58.04C8.0668 55.68 7.9668 53.34 7.9668 51.02C7.9668 48.3 8.3268 45.64 9.0468 43.04C9.8068 40.44 10.9468 38.1 12.4668 36.02C14.0268 33.9 15.9868 32.22 18.3468 30.98C20.7068 29.74 23.5068 29.12 26.7468 29.12C30.0268 29.12 32.9868 29.8 35.6268 31.16C38.3068 32.52 40.4468 34.46 42.0468 36.98C43.6468 39.5 44.4468 42.5 44.4468 45.98C44.4468 49.1 43.9668 51.78 43.0068 54.02C42.0468 56.26 40.7468 58.1 39.1068 59.54C37.5068 60.94 35.7068 61.98 33.7068 62.66C31.7468 63.34 29.7468 63.66 27.7068 63.62C25.6668 63.54 23.7668 63.14 22.0068 62.42C22.2068 63.38 22.3068 64.36 22.3068 65.36C22.3468 66.36 22.1868 67.3 21.8268 68.18C21.5068 69.02 20.9068 69.72 20.0268 70.28C19.1868 70.8 17.9868 71.06 16.4268 71.06ZM27.3468 54.26C28.7868 54.26 30.0268 53.74 31.0668 52.7C32.1468 51.62 32.6868 50.38 32.6868 48.98C32.6868 47.54 32.1468 46.3 31.0668 45.26C30.0268 44.18 28.7868 43.64 27.3468 43.64C25.9068 43.64 24.6468 44.18 23.5668 45.26C22.5268 46.3 22.0068 47.54 22.0068 48.98C22.0068 50.38 22.5268 51.62 23.5668 52.7C24.6468 53.74 25.9068 54.26 27.3468 54.26Z" fill="black"/>
<path d="M69.5071 71C68.1071 71 66.9471 70.64 66.0271 69.92C65.1471 69.16 64.5471 68.22 64.2271 67.1C63.9071 65.98 63.7071 64.74 63.6271 63.38C63.5471 61.98 63.5071 60.58 63.5071 59.18C63.5471 57.74 63.5471 56.42 63.5071 55.22C63.4671 54.02 63.3471 53.06 63.1471 52.34C62.9471 51.62 62.5671 51.26 62.0071 51.26C61.2071 51.26 60.6471 51.6 60.3271 52.28C60.0071 52.92 59.8471 53.8 59.8471 54.92C59.8471 56 59.9071 57.18 60.0271 58.46C60.1871 59.74 60.3471 61.02 60.5071 62.3C60.6671 63.54 60.7471 64.64 60.7471 65.6C60.7471 67.6 60.2871 68.98 59.3671 69.74C58.4871 70.5 57.2671 70.88 55.7071 70.88C54.1471 70.88 52.7671 70.24 51.5671 68.96C50.4071 67.64 49.4271 65.96 48.6271 63.92C47.8671 61.84 47.2871 59.6 46.8871 57.2C46.4871 54.8 46.2871 52.52 46.2871 50.36C46.2871 47.72 46.5671 45.16 47.1271 42.68C47.7271 40.2 48.6071 37.98 49.7671 36.02C50.9671 34.06 52.4471 32.5 54.2071 31.34C55.9671 30.18 58.0471 29.6 60.4471 29.6C62.3271 29.6 63.8871 30.02 65.1271 30.86C66.3671 31.66 67.3471 32.68 68.0671 33.92C68.8271 35.16 69.3471 36.42 69.6271 37.7C69.9071 36.42 70.4071 35.16 71.1271 33.92C71.8471 32.68 72.8271 31.66 74.0671 30.86C75.3071 30.02 76.8471 29.6 78.6871 29.6C81.7271 29.6 84.3071 30.54 86.4271 32.42C88.5871 34.3 90.2271 36.9 91.3471 40.22C92.4671 43.5 93.0271 47.32 93.0271 51.68C93.0271 53.72 92.8071 55.88 92.3671 58.16C91.9271 60.4 91.2871 62.5 90.4471 64.46C89.6471 66.38 88.6671 67.96 87.5071 69.2C86.3471 70.4 85.0271 71 83.5471 71C81.9471 71 80.6871 70.6 79.7671 69.8C78.8471 69 78.3871 67.6 78.3871 65.6C78.3871 64.64 78.4671 63.54 78.6271 62.3C78.7871 61.02 78.9471 59.74 79.1071 58.46C79.2671 57.18 79.3471 56 79.3471 54.92C79.3471 53.8 79.1871 52.92 78.8671 52.28C78.5871 51.6 78.0471 51.26 77.2471 51.26C76.6871 51.26 76.2871 51.62 76.0471 52.34C75.8471 53.06 75.7071 54.02 75.6271 55.22C75.5871 56.38 75.5671 57.68 75.5671 59.12C75.5671 60.52 75.5271 61.92 75.4471 63.32C75.4071 64.72 75.2271 65.98 74.9071 67.1C74.6271 68.22 74.0271 69.16 73.1071 69.92C72.1871 70.64 70.9871 71 69.5071 71Z" fill="#120DEA"/>
</g>
<defs>
<clipPath id="clip0_3_25">
<rect width="100" height="100" fill="white"/>
</clipPath>
</defs>
</svg>
